<svg version="1.0" xmlns="http://www.w3.org/2000/svg"
 width="1024.000000pt" height="1024.000000pt" viewBox="0 0 1024.000000 1024.000000"
 preserveAspectRatio="xMidYMid meet">

<g transform="translate(0.000000,1024.000000) scale(0.100000,-0.100000)"
fill="#FFFFFF" stroke="none"> <!-- Cambiado a blanco -->
<path d="M4463 8756 c-11 -13 -52 -85 -92 -160 -59 -111 -77 -136 -94 -136
-12 1 -80 9 -152 19 -71 10 -135 16 -142 14 -7 -3 -13 -18 -13 -33 0 -22 22
-54 91 -132 77 -88 89 -107 85 -130 -3 -15 -33 -93 -67 -172 -37 -86 -59 -152
-55 -161 8 -21 56 -14 125 16 24 10 47 17 51 14 5 -3 -16 -79 -47 -169 l-55
-163 -101 -37 c-295 -108 -558 -265 -792 -471 -44 -38 -86 -74 -93 -80 -7 -5
-65 -66 -128 -135 -344 -371 -567 -777 -679 -1233 -19 -77 -35 -151 -35 -164
0 -15 -24 -47 -69 -92 -194 -195 -255 -479 -102 -481 33 0 111 36 111 52 0 4
4 8 9 8 5 0 10 -56 10 -125 5 -685 265 -1366 722 -1890 120 -138 323 -335 448
-434 394 -313 878 -543 1336 -636 271 -55 331 -60 655 -60 286 1 314 3 460 28
431 76 800 220 1157 453 276 179 553 441 553 522 0 47 6 46 -240 62 -213 14
-420 48 -420 70 0 3 38 39 85 79 l86 72 57 -7 c69 -7 124 6 214 51 51 27 220
85 244 85 14 0 -1 -34 -26 -63 -31 -36 -94 -59 -196 -72 -87 -11 -133 -54
-122 -112 8 -43 44 -48 394 -51 332 -4 478 5 532 30 21 10 28 21 30 51 6 76
-24 94 -197 117 -94 13 -130 27 -159 64 -20 26 -20 68 2 84 6 5 38 14 71 21
125 24 233 100 281 199 26 52 31 185 10 236 -15 37 -15 38 17 94 29 52 32 65
32 142 0 72 -4 93 -26 139 l-27 53 20 46 c17 37 20 60 16 127 -5 93 -28 152
-84 209 -60 62 -86 71 -214 73 -63 1 -116 6 -118 11 -4 12 50 89 308 443 281
384 497 685 510 710 16 29 12 54 -13 77 -22 20 -34 22 -233 24 l-210 3 85 190
c68 153 85 200 85 240 1 50 1 50 -40 64 -38 13 -44 13 -74 -5 -29 -16 -41 -37
-80 -134 -67 -165 -141 -333 -152 -347 -8 -10 -139 -13 -594 -13 -571 0 -584
0 -604 -20 -32 -32 -24 -62 43 -156 233 -326 716 -1013 725 -1031 7 -12 12
-33 12 -46 0 -25 0 -25 -42 -10 -71 24 -200 14 -272 -21 -111 -54 -245 -219
-305 -375 -53 -138 -68 -213 -71 -362 0 -4 -12 -10 -27 -14 -113 -27 -182
-158 -170 -321 l5 -74 -41 -34 c-67 -54 -180 -123 -302 -183 l-113 -57 -111
64 c-394 225 -719 611 -842 1001 -31 97 -32 103 -15 113 113 67 161 121 190
211 l16 52 143 5 c205 8 314 46 408 145 106 111 167 305 185 593 6 97 9 107
34 133 17 17 31 44 35 68 7 38 -1 164 -12 202 -10 37 -64 47 -315 59 -381 18
-700 -4 -959 -67 -57 -14 -120 -25 -139 -25 -19 0 -113 14 -209 32 l-174 32 6
141 c9 185 22 285 57 430 120 500 443 980 855 1272 59 42 70 54 70 79 0 49
-34 57 -245 62 -259 6 -471 -18 -767 -85 -23 -5 -23 -5 -23 131 0 75 4 136 9
136 5 0 44 -32 86 -70 83 -76 117 -92 142 -68 13 14 12 31 -11 157 -14 77 -26
151 -26 163 1 24 91 97 208 168 39 24 52 38 52 56 0 28 0 28 -173 54 -71 10
-131 21 -134 24 -3 3 -18 79 -33 170 -15 92 -33 173 -40 181 -18 21 -36 19
-57 -9z m427 -1323 c-415 -420 -660 -961 -688 -1518 l-7 -130 -290 -6 c-159
-4 -382 -12 -495 -19 l-205 -12 -292 -98 c-183 -61 -293 -93 -293 -86 0 22
107 329 144 416 115 264 311 545 546 780 368 370 809 616 1293 724 133 30 284
54 348 55 l45 1 -106 -107z m3030 -1757 c0 -2 -24 -58 -53 -123 l-54 -118
-291 -3 -290 -2 -84 117 c-45 65 -84 121 -86 125 -2 5 190 8 427 8 237 0 431
-2 431 -4z m451 -13 c-5 -10 -42 -65 -83 -123 l-74 -105 -111 -3 -112 -3 57
126 56 125 139 0 c128 0 137 -1 128 -17z m-2487 -93 c151 -18 162 -32 160
-210 -2 -214 -46 -399 -114 -481 -27 -34 -133 -99 -160 -99 -7 0 8 22 33 49
87 93 131 220 146 417 15 195 2 224 -101 224 l-46 0 -49 -112 c-26 -61 -93
-215 -149 -342 l-101 -231 -42 1 c-25 0 -49 8 -58 17 -16 15 -15 19 4 54 20
36 263 597 263 608 0 9 -217 5 -297 -6 -112 -15 -175 -48 -228 -120 -23 -32
-45 -55 -49 -52 -9 10 -7 56 5 113 23 107 101 150 299 169 135 12 380 13 484
1z m-1679 -40 c189 -12 248 -27 291 -72 37 -38 49 -61 57 -105 9 -47 -8 -50
-55 -8 -52 47 -112 75 -165 75 -49 0 -54 -6 -138 -170 -26 -52 -80 -156 -120
-230 -40 -74 -96 -181 -124 -238 -42 -81 -58 -103 -79 -109 -39 -9 -185 13
-230 36 -51 26 -109 91 -137 155 -45 103 -81 336 -73 476 7 123 47 170 159
189 76 12 423 13 614 1z m-981 -270 c21 -294 84 -490 195 -612 57 -62 132
-105 241 -140 68 -21 93 -23 265 -22 162 0 202 4 270 22 136 37 220 85 310
176 116 116 174 240 220 466 26 127 35 140 101 140 56 0 71 -20 99 -133 46
-188 121 -319 237 -419 96 -82 128 -115 128 -131 0 -23 -43 -80 -75 -99 -41
-23 -127 -44 -258 -63 -119 -16 -142 -25 -152 -56 -16 -49 90 -109 191 -109
24 0 46 -6 51 -12 8 -12 59 -169 70 -214 4 -17 -5 -24 -64 -47 -258 -100 -549
-100 -863 0 -113 36 -431 188 -437 208 -1 6 12 19 29 30 50 32 58 52 28 77
-49 40 -199 9 -257 -54 -60 -64 -85 -264 -35 -283 12 -5 29 8 63 46 40 45 48
50 66 41 11 -6 28 -22 37 -36 27 -41 233 -221 325 -285 236 -161 456 -230 699
-218 172 8 322 60 477 166 33 23 65 41 70 41 6 0 19 -15 30 -32 45 -78 166
-231 259 -327 388 -399 892 -636 1494 -702 113 -13 114 -13 90 -31 -84 -68
-299 -200 -429 -266 -348 -176 -677 -276 -1029 -313 -142 -15 -510 -6 -643 15
-503 81 -943 269 -1367 584 -138 103 -425 385 -530 522 -307 399 -496 833
-566 1305 -18 122 -29 465 -19 599 8 117 -24 97 300 190 276 79 357 98 366 82
4 -6 10 -54 13 -106z m4297 -816 c68 -34 117 -144 105 -235 -13 -97 -62 -171
-125 -190 -32 -10 -43 -8 -78 10 -23 11 -51 34 -63 51 -26 37 -46 28 -56 -26
-14 -73 30 -135 110 -155 25 -6 46 -13 46 -16 0 -25 -74 -170 -113 -220 -33
-45 -46 -68 -39 -75 16 -16 73 -1 126 32 25 17 48 30 50 30 2 0 6 -27 9 -60 7
-63 39 -151 63 -171 8 -6 14 -22 14 -36 0 -19 -9 -28 -44 -43 -71 -30 -125
-34 -220 -15 -47 9 -93 15 -101 11 -24 -9 -17 -44 16 -78 28 -30 29 -33 13
-45 -30 -22 -82 -15 -154 22 -85 43 -137 88 -182 158 -31 48 -33 57 -33 137 0
62 5 94 18 118 10 17 22 32 26 32 5 0 25 -28 44 -62 20 -35 46 -73 59 -85 50
-47 138 -65 138 -28 0 8 -16 40 -35 72 -106 174 -107 391 -3 598 56 110 125
199 192 248 60 43 155 52 217 21z m497 -34 c18 -11 40 -36 48 -55 15 -36 20
-135 7 -135 -5 0 -79 -1 -165 -3 l-157 -3 -6 65 c-14 135 -17 125 45 138 93
19 190 16 228 -7z m7 -354 c50 -21 77 -69 72 -129 -5 -62 -23 -82 -61 -67 -15
5 -101 10 -192 10 -192 0 -185 -7 -132 122 l32 78 123 0 c85 0 134 -5 158 -14z
m-24 -352 c45 -26 61 -59 56 -113 -6 -51 -29 -85 -83 -123 -38 -27 -134 -54
-134 -38 0 5 25 22 55 39 39 22 55 37 55 52 0 19 -4 20 -62 12 -35 -4 -92 -8
-126 -8 -57 0 -66 3 -88 28 -33 38 -33 105 -1 134 34 33 83 43 193 39 79 -2
109 -7 135 -22z"/>
<path d="M4067 5435 c-1 -1 -92 -5 -202 -8 -215 -7 -267 -15 -297 -45 -40 -39
-49 -167 -23 -318 25 -143 77 -234 156 -274 47 -24 77 -25 108 -3 15 10 77
125 172 320 82 168 149 308 149 313 0 7 -56 20 -63 15z"/>
</g>
</svg>